<svg xmlns="http://www.w3.org/2000/svg" xmlns:xlink="http://www.w3.org/1999/xlink" width="984.968" height="255.461"><defs><path id="a" d="M0 .143h20.883v31.893H0Z"/></defs><g fill="none" fill-rule="evenodd"><path fill="#50505f" d="M287.934 116.32c0 16.613 10.845 28.997 26.729 28.997 16.54 0 26.85-12.92 26.85-28.996s-10.31-28.996-26.85-28.996c-15.884 0-26.73 12.375-26.73 28.996m82.36 0c0 31.599-21.58 55.388-50.36 55.388-14.065 0-23.733-5.438-30.597-13.689v52.393h-27.923V63.751h27.386v11.623c6.864-8.691 16.74-14.442 31.022-14.442 28.676 0 50.471 23.781 50.471 55.389m39.81 0c0 16.076 10.413 28.996 26.849 28.996 15.996 0 26.841-12.384 26.841-28.996 0-16.621-10.845-28.996-26.841-28.996-16.436 0-26.85 12.92-26.85 28.996zm52.825 52.665v-11.614c-6.864 8.578-16.853 14.337-31.142 14.337-28.764 0-50.351-23.79-50.351-55.388 0-31.608 21.587-55.39 50.35-55.39 14.29 0 24.27 5.752 31.143 14.443V63.75h27.394v105.235Zm72.338-52.665c0 16.612 10.838 28.996 26.73 28.996 16.54 0 26.849-12.92 26.849-28.996s-10.31-28.996-26.85-28.996c-15.891 0-26.729 12.375-26.729 28.996m82.359 0c0 31.599-21.587 55.388-50.367 55.388-14.058 0-23.726-5.438-30.598-13.689v52.393h-27.915V63.751h27.378v11.623c6.873-8.691 16.749-14.442 31.03-14.442 28.668 0 50.463 23.781 50.463 55.389m39.81 0c0 16.076 10.413 28.996 26.85 28.996 16.003 0 26.849-12.384 26.849-28.996 0-16.621-10.846-28.996-26.85-28.996-16.436 0-26.849 12.92-26.849 28.996zm52.834 52.665v-11.614c-6.873 8.578-16.853 14.337-31.143 14.337-28.772 0-50.35-23.79-50.35-55.388 0-31.608 21.578-55.39 50.35-55.39 14.29 0 24.27 5.752 31.143 14.443V63.75h27.386v105.235H710.25zm69.75-54.3c0 15.203 10.205 27.587 26.209 27.587 15.58 0 26.096-11.951 26.096-27.586 0-15.748-10.517-27.69-26.096-27.69-16.004 0-26.2 12.382-26.2 27.69m51.327-39.21V63.752h27.49v94.542c0 33.882-21.795 54.187-56.15 54.187-16.436 0-33.721-4.341-45.536-12.704l9.98-23.132c10.413 6.952 21.803 10.749 34.363 10.749 17.398 0 29.637-9.66 29.637-27.907v-5.366c-7.193 8.794-17.502 14.225-32 14.225-25.335 0-47.883-21.394-47.883-53.65 0-32.36 22.548-53.755 47.883-53.755 14.602 0 25.015 5.535 32.216 14.546m69.663 40.835c0 17.045 11.806 28.996 27.594 28.996 15.892 0 27.706-11.951 27.706-28.996 0-17.062-11.814-28.996-27.714-28.996-15.78 0-27.586 11.934-27.586 28.996m83.96 0c0 31.711-23.95 55.388-56.366 55.388-32.328 0-56.15-23.677-56.15-55.388 0-31.72 23.822-55.39 56.15-55.39 32.424 0 56.366 23.67 56.366 55.39"/><g transform="matrix(8.00995 0 0 8.00995 0 -1.145)"><mask id="b" fill="#fff"><use xlink:href="#a" width="100%" height="100%"/></mask><path fill="#00a2ff" d="M20.883 14.787c-2.304 0-6.639.026-6.639.026V.733h-1.016c-5.473 0-7.053.06-9.513-.59 0 0 .053 2.444 2.571 3.772C4.051 6.1 3.39 9.337 3.39 12.713c0 3.376-.313 5.929-.719 7.926C1.768 25.083 0 28.535 0 28.535a9.921 9.921 0 0 0 4.193.113v3.388c9.053 0 16.69-5.385 16.69-15.404v-1.845" mask="url(#b)"/></g><path fill="#ffc600" d="M114.102 89.047v53.586a68.51 68.51 0 0 0 53.17-25.327l-53.17-28.26"/><path fill="#fafdfd" d="M114.102 142.641c-31.76 0-57.512-26.032-57.512-58.152 0-32.128 25.752-58.168 57.512-58.168z"/><path fill="#50505f" d="M101.102 75.598a13.377 13.377 0 0 1-13.297 13.457 13.377 13.377 0 0 1-13.288-13.457 13.377 13.377 0 0 1 13.296-13.44c7.337 0 13.297 6.015 13.297 13.44"/><path fill="#1eda69" d="M147.039 12.031a77.705 77.705 0 0 0-32.937-7.305v84.32h78.786v-4.621a79.747 79.747 0 0 0-45.85-72.394"/><path fill="#0087ff" d="M97.753 174.77c-10.292 27.738-34.57 48.564-64.151 53.666l-.024 27.01c36.733-7.97 64.272-40.996 64.272-80.525"/></g></svg>